<svg width="22" height="29" viewBox="0 0 22 29" fill="none" xmlns="http://www.w3.org/2000/svg">
<path d="M8.93609 28.56C5.78943 28.56 3.04276 27.8933 0.696094 26.56V18.68C3.22943 20.3067 5.80276 21.12 8.41609 21.12C11.2428 21.12 12.6561 20.16 12.6561 18.24C12.6561 17.3333 12.2694 16.6267 11.4961 16.12C10.7228 15.6133 9.61609 15.36 8.17609 15.36C5.85609 15.36 3.61609 15.72 1.45609 16.44L3.29609 -1.90735e-06H19.3761V7.16H9.61609L9.45609 9.04H9.97609C10.1361 9.04 10.2561 9.02667 10.3361 9C13.5628 9 16.1894 9.81333 18.2161 11.44C20.2428 13.0667 21.2561 15.3333 21.2561 18.24C21.2561 20.5333 20.6561 22.48 19.4561 24.08C18.2828 25.68 16.7894 26.8267 14.9761 27.52C13.1894 28.2133 11.1761 28.56 8.93609 28.56Z" fill="#FF6060"/>
</svg>
