<svg width="22" height="29" viewBox="0 0 22 29" fill="none" xmlns="http://www.w3.org/2000/svg">
<path d="M9.65797 28.56C6.21797 28.56 3.24464 27.8 0.737969 26.28V18.52C3.61797 20.2533 6.3113 21.12 8.81797 21.12C10.098 21.12 11.1113 20.8667 11.858 20.36C12.6313 19.8533 13.018 19.16 13.018 18.28C13.018 17.48 12.7113 16.8267 12.098 16.32C11.4846 15.7867 10.578 15.52 9.37797 15.52C7.5913 15.52 6.0313 15.84 4.69797 16.48V11.32L10.218 7.16H1.37797V-1.90735e-06H20.218V6.4L15.378 10.32C19.538 11.92 21.618 14.6533 21.618 18.52C21.618 21.56 20.458 24 18.138 25.84C15.8446 27.6533 13.018 28.56 9.65797 28.56Z" fill="#FF6060"/>
</svg>
