<svg width="24" height="30" viewBox="0 0 24 30" fill="none" xmlns="http://www.w3.org/2000/svg">
<path d="M14.5233 10.04C17.0833 10.04 19.1899 10.8667 20.8433 12.52C22.5233 14.1733 23.3633 16.4533 23.3633 19.36C23.3633 22.4267 22.3366 24.8933 20.2833 26.76C18.2299 28.6267 15.6566 29.56 12.5633 29.56C8.82995 29.56 5.93661 28.3733 3.88328 26C1.85661 23.6267 0.843281 20.44 0.843281 16.44C0.843281 14.84 0.989948 13.3067 1.28328 11.84C1.60328 10.3467 2.10995 8.90667 2.80328 7.52C3.49661 6.10667 4.34995 4.89333 5.36328 3.88C6.37661 2.84 7.65661 2.01333 9.20328 1.4C10.7499 0.759998 12.4566 0.439998 14.3233 0.439998C17.2299 0.439998 19.4699 0.999998 21.0433 2.12V9.6C19.3899 8.4 17.4966 7.8 15.3633 7.8C13.8433 7.8 12.5366 8.16 11.4433 8.88C10.3499 9.57333 9.69662 10.6133 9.48328 12C10.7099 10.6933 12.3899 10.04 14.5233 10.04ZM11.9633 22.56C12.9499 22.56 13.6966 22.2667 14.2033 21.68C14.7366 21.0933 15.0033 20.3333 15.0033 19.4C15.0033 18.6 14.7366 17.9067 14.2033 17.32C13.6699 16.7067 12.9499 16.4 12.0433 16.4C11.4033 16.4 10.7899 16.5733 10.2033 16.92C9.61662 17.2667 9.17661 17.7467 8.88328 18.36C8.88328 19.7467 9.18995 20.8 9.80328 21.52C10.4433 22.2133 11.1633 22.56 11.9633 22.56Z" fill="#FFDC60"/>
</svg>
