<svg width="22" height="29" viewBox="0 0 22 29" fill="none" xmlns="http://www.w3.org/2000/svg">
<path d="M0.457031 29V22.84L7.37703 16.84C9.05703 15.4 10.2037 14.2267 10.817 13.32C11.457 12.4133 11.777 11.5333 11.777 10.68C11.777 9.90667 11.4837 9.30667 10.897 8.88C10.3104 8.45333 9.53703 8.24 8.57703 8.24C6.23036 8.24 3.87036 9.14666 1.49703 10.96V2.52C3.63036 1.13333 6.29703 0.439998 9.49703 0.439998C12.3237 0.439998 14.8304 1.26667 17.017 2.92C19.2304 4.57333 20.337 6.8 20.337 9.6C20.337 11.6533 19.9104 13.4667 19.057 15.04C18.2304 16.5867 16.7104 18.28 14.497 20.12L12.417 21.84H21.177V29H0.457031Z" fill="#FFDC60"/>
</svg>
