<svg width="129" height="52" viewBox="0 0 129 52" fill="none" xmlns="http://www.w3.org/2000/svg">
<g filter="url(#filter0_d_1_76)">
<path d="M10.92 19.42C11.5067 20.0467 12.2533 20.36 13.16 20.36C14.0667 20.36 14.8067 20.0467 15.38 19.42C15.9667 18.78 16.26 17.9733 16.26 17C16.26 16.0267 15.9667 15.2267 15.38 14.6C14.8067 13.96 14.0667 13.64 13.16 13.64C12.2533 13.64 11.5067 13.96 10.92 14.6C10.3467 15.2267 10.06 16.0267 10.06 17C10.06 17.9733 10.3467 18.78 10.92 19.42ZM18.52 22.16C17.1067 23.5733 15.32 24.28 13.16 24.28C11 24.28 9.20667 23.5667 7.78 22.14C6.36667 20.7133 5.66 19 5.66 17C5.66 14.9867 6.36667 13.2733 7.78 11.86C9.20667 10.4333 11 9.72 13.16 9.72C15.32 9.72 17.1067 10.4333 18.52 11.86C19.9333 13.2733 20.64 14.9867 20.64 17C20.64 19.0133 19.9333 20.7333 18.52 22.16ZM20.8111 10H33.1111V13.7H29.0911V24H24.7911V13.7H20.8111V10ZM34.6147 24V10H45.5947V13.7H38.9147V14.94H44.1547V18.34H38.9147V20.3H45.7147V24H34.6147ZM46.2695 23.8V20C46.6429 20.1733 46.9695 20.26 47.2495 20.26C47.7429 20.26 48.1095 20.16 48.3495 19.96C48.5895 19.7467 48.7895 19.2333 48.9495 18.42C49.1229 17.5933 49.2162 16.3467 49.2295 14.68L49.2895 10H60.3295V24H56.0495V13.7H53.1895L53.1695 15.38C53.1429 17.0867 53.0095 18.5267 52.7695 19.7C52.5429 20.86 52.2029 21.7667 51.7495 22.42C51.3095 23.06 50.8095 23.5133 50.2495 23.78C49.6895 24.0467 49.0162 24.18 48.2295 24.18C47.3229 24.18 46.6695 24.0533 46.2695 23.8ZM62.4467 24V10H66.7267V14.04H68.7067C70.4667 14.04 71.8734 14.5133 72.9267 15.46C73.9934 16.3933 74.5267 17.5867 74.5267 19.04C74.5267 20.5067 73.9934 21.7 72.9267 22.62C71.8734 23.54 70.4667 24 68.7067 24H62.4467ZM66.7267 20.42H68.4467C68.9667 20.42 69.3867 20.2867 69.7067 20.02C70.0401 19.74 70.2067 19.38 70.2067 18.94C70.2067 18.4733 70.0401 18.1 69.7067 17.82C69.3867 17.54 68.9667 17.4 68.4467 17.4H66.7267V20.42ZM75.8061 24V10H80.1061V14.74H84.3861V10H88.6861V24H84.3861V18.48H80.1061V24H75.8061ZM103.666 24V10H107.946V24H103.666ZM90.8061 24V10H95.1061V14.04H96.6461C98.3928 14.04 99.7928 14.5133 100.846 15.46C101.913 16.3933 102.446 17.5867 102.446 19.04C102.446 20.4933 101.919 21.6867 100.866 22.62C99.8128 23.54 98.4061 24 96.6461 24H90.8061ZM95.1061 20.42H96.3661C96.8861 20.42 97.3061 20.2867 97.6261 20.02C97.9594 19.74 98.1261 19.38 98.1261 18.94C98.1261 18.4733 97.9594 18.1 97.6261 17.82C97.3061 17.54 96.8861 17.4 96.3661 17.4H95.1061V20.42ZM110.064 24V10H114.224V16.96L119.624 10H123.164V24H119.044V17.1L113.724 24H110.064ZM116.644 9.32C115.564 9.32 114.651 9 113.904 8.36C113.157 7.70667 112.771 6.82 112.744 5.7H115.464C115.477 6.42 115.864 6.78 116.624 6.78C117.357 6.78 117.737 6.42 117.764 5.7H120.524C120.497 6.83333 120.117 7.72 119.384 8.36C118.664 9 117.751 9.32 116.644 9.32ZM6.06 46V32H16.82V35.5H10.38V36.62H12.46C14.1533 36.62 15.5067 37.06 16.52 37.94C17.5467 38.8067 18.06 39.9267 18.06 41.3C18.06 42.6867 17.5467 43.82 16.52 44.7C15.5067 45.5667 14.1533 46 12.46 46H6.06ZM10.38 42.44H12.12C12.6 42.44 12.9933 42.3133 13.3 42.06C13.6067 41.8067 13.76 41.48 13.76 41.08C13.76 40.6667 13.6067 40.3267 13.3 40.06C12.9933 39.7933 12.6 39.66 12.12 39.66H10.38V42.44ZM19.517 46V32H23.677V38.96L29.077 32H32.617V46H28.497V39.1L23.177 46H19.517ZM39.5319 46.28C37.3585 46.28 35.5585 45.84 34.1319 44.96V40.94C34.7719 41.4333 35.5252 41.8133 36.3919 42.08C37.2719 42.3333 38.1252 42.46 38.9519 42.46C40.5519 42.46 41.3519 42.0667 41.3519 41.28C41.3519 40.9467 41.1985 40.72 40.8919 40.6C40.5985 40.4667 40.1652 40.4 39.5919 40.4H37.5119V37.14H39.8119C40.7185 37.14 41.1719 36.88 41.1719 36.36C41.1719 35.76 40.4985 35.46 39.1519 35.46C37.4985 35.46 35.9785 35.8067 34.5919 36.5V32.84C36.0319 32.0933 37.6985 31.72 39.5919 31.72C41.4052 31.72 42.8319 32.1133 43.8719 32.9C44.9252 33.6733 45.4519 34.6467 45.4519 35.82C45.4519 36.5267 45.2919 37.12 44.9719 37.6C44.6519 38.0667 44.2519 38.4067 43.7719 38.62C44.3319 38.8867 44.8052 39.2933 45.1919 39.84C45.5919 40.3733 45.7919 41.0133 45.7919 41.76C45.7919 43.04 45.2252 44.1133 44.0919 44.98C42.9719 45.8467 41.4519 46.28 39.5319 46.28ZM47.2905 46V32H51.5905V36.74H55.8705V32H60.1705V46H55.8705V40.48H51.5905V46H47.2905ZM62.2905 46V32H73.2705V35.7H66.5905V36.94H71.8305V40.34H66.5905V42.3H73.3905V46H62.2905ZM82.3323 46.28C80.0257 46.28 78.1123 45.6067 76.5923 44.26C75.0723 42.9 74.3123 41.1467 74.3123 39C74.3123 36.8533 75.0657 35.1067 76.5723 33.76C78.079 32.4 79.9857 31.72 82.2923 31.72C83.6657 31.72 84.8457 31.9667 85.8323 32.46V36.52C84.6857 35.9067 83.5457 35.6 82.4123 35.6C81.3457 35.6 80.4657 35.9267 79.7723 36.58C79.079 37.22 78.7323 38.0267 78.7323 39C78.7323 40 79.0923 40.82 79.8123 41.46C80.5323 42.0867 81.4523 42.4 82.5723 42.4C83.9457 42.4 85.099 42.0667 86.0323 41.4V45.52C85.0723 46.0267 83.839 46.28 82.3323 46.28Z" fill="#FFDC60"/>
</g>
<defs>
<filter id="filter0_d_1_76" x="0.660004" y="0.699997" width="127.504" height="50.58" filterUnits="userSpaceOnUse" color-interpolation-filters="sRGB">
<feFlood flood-opacity="0" result="BackgroundImageFix"/>
<feColorMatrix in="SourceAlpha" type="matrix" values="0 0 0 0 0 0 0 0 0 0 0 0 0 0 0 0 0 0 127 0" result="hardAlpha"/>
<feOffset/>
<feGaussianBlur stdDeviation="2.5"/>
<feComposite in2="hardAlpha" operator="out"/>
<feColorMatrix type="matrix" values="0 0 0 0 0 0 0 0 0 0 0 0 0 0 0 0 0 0 0.34 0"/>
<feBlend mode="normal" in2="BackgroundImageFix" result="effect1_dropShadow_1_76"/>
<feBlend mode="normal" in="SourceGraphic" in2="effect1_dropShadow_1_76" result="shape"/>
</filter>
</defs>
</svg>
