<svg width="161" height="28" viewBox="0 0 161 28" fill="none" xmlns="http://www.w3.org/2000/svg">
<g filter="url(#filter0_d_1_77)">
<path d="M5.96 22.58V16.3H7.38C8.28667 14.6467 8.74 12.12 8.74 8.72V6H19.64V16.3H21.4V22.58H17.36V20H9.98V22.58H5.96ZM11.7 16.3H15.36V9.7H12.78C12.78 10.8067 12.6867 12.0067 12.5 13.3C12.3267 14.58 12.06 15.58 11.7 16.3ZM22.8608 20V6H27.0208V12.96L32.4208 6H35.9608V20H31.8408V13.1L26.5208 20H22.8608ZM38.0756 20V6H50.7756V20H46.4956V9.7H42.3756V20H38.0756ZM51.8398 19.8V16C52.2132 16.1733 52.5398 16.26 52.8198 16.26C53.3132 16.26 53.6798 16.16 53.9198 15.96C54.1598 15.7467 54.3598 15.2333 54.5198 14.42C54.6932 13.5933 54.7865 12.3467 54.7998 10.68L54.8598 6H65.8998V20H61.6198V9.7H58.7598L58.7398 11.38C58.7132 13.0867 58.5798 14.5267 58.3398 15.7C58.1132 16.86 57.7732 17.7667 57.3198 18.42C56.8798 19.06 56.3798 19.5133 55.8198 19.78C55.2598 20.0467 54.5865 20.18 53.7998 20.18C52.8932 20.18 52.2398 20.0533 51.8398 19.8ZM72.877 15.42C73.4637 16.0467 74.2104 16.36 75.117 16.36C76.0237 16.36 76.7637 16.0467 77.337 15.42C77.9237 14.78 78.217 13.9733 78.217 13C78.217 12.0267 77.9237 11.2267 77.337 10.6C76.7637 9.96 76.0237 9.64 75.117 9.64C74.2104 9.64 73.4637 9.96 72.877 10.6C72.3037 11.2267 72.017 12.0267 72.017 13C72.017 13.9733 72.3037 14.78 72.877 15.42ZM80.477 18.16C79.0637 19.5733 77.277 20.28 75.117 20.28C72.957 20.28 71.1637 19.5667 69.737 18.14C68.3237 16.7133 67.617 15 67.617 13C67.617 10.9867 68.3237 9.27333 69.737 7.86C71.1637 6.43333 72.957 5.72 75.117 5.72C77.277 5.72 79.0637 6.43333 80.477 7.86C81.8904 9.27333 82.597 10.9867 82.597 13C82.597 15.0133 81.8904 16.7333 80.477 18.16ZM84.3452 20V6H88.6052L91.6652 10.98L94.7452 6H98.9852V20H94.8652V12.16L92.8852 15.5H90.5652L88.5052 12.16V20H84.3452ZM100.063 20L105.823 5.92H109.923L115.703 20H111.083L110.083 17.38H105.523L104.503 20H100.063ZM106.763 14.16H108.823L107.803 10.84L106.763 14.16ZM114.155 6H126.455V9.7H122.435V20H118.135V9.7H114.155V6ZM127.958 20V6H132.118V12.96L137.518 6H141.058V20H136.938V13.1L131.618 20H127.958ZM141.913 20L146.093 14.52C145.293 14.12 144.667 13.5733 144.213 12.88C143.76 12.1733 143.533 11.38 143.533 10.5C143.533 9.19333 144.013 8.12 144.973 7.28C145.933 6.42667 147.207 6 148.793 6H155.513V20H151.213V15H150.653L146.893 20H141.913ZM149.293 11.86H151.213V9.6H149.293C148.893 9.6 148.567 9.7 148.313 9.9C148.073 10.1 147.953 10.3733 147.953 10.72C147.953 11.0667 148.073 11.3467 148.313 11.56C148.567 11.76 148.893 11.86 149.293 11.86Z" fill="#FFDC60"/>
</g>
<defs>
<filter id="filter0_d_1_77" x="0.960022" y="0.719997" width="159.553" height="26.86" filterUnits="userSpaceOnUse" color-interpolation-filters="sRGB">
<feFlood flood-opacity="0" result="BackgroundImageFix"/>
<feColorMatrix in="SourceAlpha" type="matrix" values="0 0 0 0 0 0 0 0 0 0 0 0 0 0 0 0 0 0 127 0" result="hardAlpha"/>
<feOffset/>
<feGaussianBlur stdDeviation="2.5"/>
<feComposite in2="hardAlpha" operator="out"/>
<feColorMatrix type="matrix" values="0 0 0 0 0 0 0 0 0 0 0 0 0 0 0 0 0 0 0.34 0"/>
<feBlend mode="normal" in2="BackgroundImageFix" result="effect1_dropShadow_1_77"/>
<feBlend mode="normal" in="SourceGraphic" in2="effect1_dropShadow_1_77" result="shape"/>
</filter>
</defs>
</svg>
