<svg width="122" height="26" viewBox="0 0 122 26" fill="none" xmlns="http://www.w3.org/2000/svg">
<g filter="url(#filter0_d_1_72)">
<path d="M12.24 20.66V19.08C10.2 18.96 8.59333 18.3 7.42 17.1C6.24667 15.8867 5.66 14.4533 5.66 12.8C5.66 11.1467 6.24667 9.72 7.42 8.52C8.59333 7.32 10.2 6.66 12.24 6.54V5.32H16.54V6.54C18.5933 6.66 20.2 7.32 21.36 8.52C22.52 9.72 23.1 11.1467 23.1 12.8C23.1 14.4533 22.52 15.8867 21.36 17.1C20.2 18.3 18.5933 18.96 16.54 19.08V20.66H12.24ZM16.54 10.18V15.44C17.1267 15.3867 17.6333 15.1467 18.06 14.72C18.5 14.28 18.72 13.64 18.72 12.8C18.72 11.96 18.5 11.3267 18.06 10.9C17.62 10.46 17.1133 10.22 16.54 10.18ZM12.24 15.44V10.18C11.6667 10.22 11.16 10.46 10.72 10.9C10.28 11.3267 10.06 11.96 10.06 12.8C10.06 13.64 10.2733 14.28 10.7 14.72C11.14 15.1467 11.6533 15.3867 12.24 15.44ZM24.8491 20V6H29.0091V12.96L34.4091 6H37.9491V20H33.8291V13.1L28.5091 20H24.8491ZM40.0639 20V6H44.3639V10.74H48.6439V6H52.9439V20H48.6439V14.48H44.3639V20H40.0639ZM54.0239 20L59.7839 5.92H63.8839L69.6639 20H65.0439L64.0439 17.38H59.4839L58.4639 20H54.0239ZM60.7239 14.16H62.7839L61.7639 10.84L60.7239 14.16ZM70.728 20V6H75.028V10.74H79.308V6H83.608V20H79.308V14.48H75.028V20H70.728ZM93.348 20.28C91.0413 20.28 89.128 19.6067 87.608 18.26C86.088 16.9 85.328 15.1467 85.328 13C85.328 10.8533 86.0813 9.10667 87.588 7.76C89.0946 6.4 91.0013 5.72 93.308 5.72C94.6813 5.72 95.8613 5.96667 96.848 6.46V10.52C95.7013 9.90667 94.5613 9.6 93.428 9.6C92.3613 9.6 91.4813 9.92667 90.788 10.58C90.0946 11.22 89.748 12.0267 89.748 13C89.748 14 90.108 14.82 90.828 15.46C91.548 16.0867 92.468 16.4 93.588 16.4C94.9613 16.4 96.1146 16.0667 97.048 15.4V19.52C96.088 20.0267 94.8546 20.28 93.348 20.28ZM111.772 20V6H116.052V20H111.772ZM98.9116 20V6H103.212V10.04H104.752C106.498 10.04 107.898 10.5133 108.952 11.46C110.018 12.3933 110.552 13.5867 110.552 15.04C110.552 16.4933 110.025 17.6867 108.972 18.62C107.918 19.54 106.512 20 104.752 20H98.9116ZM103.212 16.42H104.472C104.992 16.42 105.412 16.2867 105.732 16.02C106.065 15.74 106.232 15.38 106.232 14.94C106.232 14.4733 106.065 14.1 105.732 13.82C105.412 13.54 104.992 13.4 104.472 13.4H103.212V16.42Z" fill="#FF6060"/>
</g>
<defs>
<filter id="filter0_d_1_72" x="0.659973" y="0.32" width="120.392" height="25.34" filterUnits="userSpaceOnUse" color-interpolation-filters="sRGB">
<feFlood flood-opacity="0" result="BackgroundImageFix"/>
<feColorMatrix in="SourceAlpha" type="matrix" values="0 0 0 0 0 0 0 0 0 0 0 0 0 0 0 0 0 0 127 0" result="hardAlpha"/>
<feOffset/>
<feGaussianBlur stdDeviation="2.5"/>
<feComposite in2="hardAlpha" operator="out"/>
<feColorMatrix type="matrix" values="0 0 0 0 0 0 0 0 0 0 0 0 0 0 0 0 0 0 0.34 0"/>
<feBlend mode="normal" in2="BackgroundImageFix" result="effect1_dropShadow_1_72"/>
<feBlend mode="normal" in="SourceGraphic" in2="effect1_dropShadow_1_72" result="shape"/>
</filter>
</defs>
</svg>
