<svg width="161" height="50" viewBox="0 0 161 50" fill="none" xmlns="http://www.w3.org/2000/svg">
<g filter="url(#filter0_d_1_61)">
<path d="M5.06 20V6H15.82V9.5H9.38V10.62H11.46C13.1533 10.62 14.5067 11.06 15.52 11.94C16.5467 12.8067 17.06 13.9267 17.06 15.3C17.06 16.6867 16.5467 17.82 15.52 18.7C14.5067 19.5667 13.1533 20 11.46 20H5.06ZM9.38 16.44H11.12C11.6 16.44 11.9933 16.3133 12.3 16.06C12.6067 15.8067 12.76 15.48 12.76 15.08C12.76 14.6667 12.6067 14.3267 12.3 14.06C11.9933 13.7933 11.6 13.66 11.12 13.66H9.38V16.44ZM18.517 20V6H22.677V12.96L28.077 6H31.617V20H27.497V13.1L22.177 20H18.517ZM38.5319 20.28C36.3585 20.28 34.5585 19.84 33.1319 18.96V14.94C33.7719 15.4333 34.5252 15.8133 35.3919 16.08C36.2719 16.3333 37.1252 16.46 37.9519 16.46C39.5519 16.46 40.3519 16.0667 40.3519 15.28C40.3519 14.9467 40.1985 14.72 39.8919 14.6C39.5985 14.4667 39.1652 14.4 38.5919 14.4H36.5119V11.14H38.8119C39.7185 11.14 40.1719 10.88 40.1719 10.36C40.1719 9.76 39.4985 9.46 38.1519 9.46C36.4985 9.46 34.9785 9.80667 33.5919 10.5V6.84C35.0319 6.09333 36.6985 5.72 38.5919 5.72C40.4052 5.72 41.8319 6.11333 42.8719 6.9C43.9252 7.67333 44.4519 8.64667 44.4519 9.82C44.4519 10.5267 44.2919 11.12 43.9719 11.6C43.6519 12.0667 43.2519 12.4067 42.7719 12.62C43.3319 12.8867 43.8052 13.2933 44.1919 13.84C44.5919 14.3733 44.7919 15.0133 44.7919 15.76C44.7919 17.04 44.2252 18.1133 43.0919 18.98C41.9719 19.8467 40.4519 20.28 38.5319 20.28ZM46.2905 20V6H50.5905V10.74H54.8705V6H59.1705V20H54.8705V14.48H50.5905V20H46.2905ZM61.2905 20V6H72.2705V9.7H65.5905V10.94H70.8305V14.34H65.5905V16.3H72.3905V20H61.2905ZM81.3323 20.28C79.0257 20.28 77.1123 19.6067 75.5923 18.26C74.0723 16.9 73.3123 15.1467 73.3123 13C73.3123 10.8533 74.0657 9.10667 75.5723 7.76C77.079 6.4 78.9857 5.72 81.2923 5.72C82.6657 5.72 83.8457 5.96667 84.8323 6.46V10.52C83.6857 9.90667 82.5457 9.6 81.4123 9.6C80.3457 9.6 79.4657 9.92667 78.7723 10.58C78.079 11.22 77.7323 12.0267 77.7323 13C77.7323 14 78.0923 14.82 78.8123 15.46C79.5323 16.0867 80.4523 16.4 81.5723 16.4C82.9457 16.4 84.099 16.0667 85.0323 15.4V19.52C84.0723 20.0267 82.839 20.28 81.3323 20.28ZM5.06 42V28H9.32L12.38 32.98L15.46 28H19.7V42H15.58V34.16L13.6 37.5H11.28L9.22 34.16V42H5.06ZM21.8178 42V28H32.7978V31.7H26.1178V32.94H31.3578V36.34H26.1178V38.3H32.9178V42H21.8178ZM34.5327 42V28H38.8327V32.74H43.1127V28H47.4127V42H43.1127V36.48H38.8327V42H34.5327ZM49.5327 42V28H60.5127V31.7H53.8327V32.94H59.0727V36.34H53.8327V38.3H60.6327V42H49.5327ZM61.1475 44.58V38.3H62.5675C63.4742 36.6467 63.9275 34.12 63.9275 30.72V28H74.8275V38.3H76.5875V44.58H72.5475V42H65.1675V44.58H61.1475ZM66.8875 38.3H70.5475V31.7H67.9675C67.9675 32.8067 67.8742 34.0067 67.6875 35.3C67.5142 36.58 67.2475 37.58 66.8875 38.3ZM76.7883 42L81.9283 34.86L77.4483 28H82.4283L85.7683 33.6V28H89.9483V33.6L93.3083 28H98.2483L93.7483 34.86L98.8883 42H93.6483L89.9483 36.46V42H85.7683V36.46L82.0483 42H76.7883ZM99.7475 42V28H104.008L107.068 32.98L110.148 28H114.388V42H110.268V34.16L108.288 37.5H105.968L103.908 34.16V42H99.7475ZM116.505 42V28H127.485V31.7H120.805V32.94H126.045V36.34H120.805V38.3H127.605V42H116.505ZM129.22 42V28H133.52V32.74H137.8V28H142.1V42H137.8V36.48H133.52V42H129.22ZM143.6 28H155.9V31.7H151.88V42H147.58V31.7H143.6V28Z" fill="#FFDC60"/>
</g>
<defs>
<filter id="filter0_d_1_61" x="0.0599976" y="0.720001" width="160.84" height="48.86" filterUnits="userSpaceOnUse" color-interpolation-filters="sRGB">
<feFlood flood-opacity="0" result="BackgroundImageFix"/>
<feColorMatrix in="SourceAlpha" type="matrix" values="0 0 0 0 0 0 0 0 0 0 0 0 0 0 0 0 0 0 127 0" result="hardAlpha"/>
<feOffset/>
<feGaussianBlur stdDeviation="2.5"/>
<feComposite in2="hardAlpha" operator="out"/>
<feColorMatrix type="matrix" values="0 0 0 0 0 0 0 0 0 0 0 0 0 0 0 0 0 0 0.34 0"/>
<feBlend mode="normal" in2="BackgroundImageFix" result="effect1_dropShadow_1_61"/>
<feBlend mode="normal" in="SourceGraphic" in2="effect1_dropShadow_1_61" result="shape"/>
</filter>
</defs>
</svg>
