<svg width="146" height="26" viewBox="0 0 146 26" fill="none" xmlns="http://www.w3.org/2000/svg">
<g filter="url(#filter0_d_1_73)">
<path d="M5.28516 19.8V16C5.65849 16.1733 5.98516 16.26 6.26516 16.26C6.75849 16.26 7.12516 16.16 7.36516 15.96C7.60516 15.7467 7.80516 15.2333 7.96516 14.42C8.13849 13.5933 8.23182 12.3467 8.24516 10.68L8.30516 6H19.3452V20H15.0652V9.7H12.2052L12.1852 11.38C12.1585 13.0867 12.0252 14.5267 11.7852 15.7C11.5585 16.86 11.2185 17.7667 10.7652 18.42C10.3252 19.06 9.82516 19.5133 9.26516 19.78C8.70516 20.0467 8.03182 20.18 7.24516 20.18C6.33849 20.18 5.68516 20.0533 5.28516 19.8ZM21.4623 20V6H25.6223V12.96L31.0223 6H34.5623V20H30.4423V13.1L25.1223 20H21.4623ZM36.0572 6H48.3572V9.7H44.3372V20H40.0372V9.7H36.0572V6ZM49.8608 20V6H60.8408V9.7H54.1608V10.94H59.4008V14.34H54.1608V16.3H60.9608V20H49.8608ZM62.5756 6H69.0156C70.629 6 71.9156 6.42667 72.8756 7.28C73.8356 8.13333 74.3156 9.22667 74.3156 10.56C74.3156 11.88 73.829 12.9733 72.8556 13.84C71.8956 14.6933 70.6156 15.12 69.0156 15.12H66.8756V20H62.5756V6ZM66.8756 12H68.4356C68.8756 12 69.229 11.8867 69.4956 11.66C69.7756 11.4333 69.9156 11.1267 69.9156 10.74C69.9156 10.3667 69.7756 10.0667 69.4956 9.84C69.2156 9.61333 68.8623 9.5 68.4356 9.5H66.8756V12ZM73.1177 20L78.8777 5.92H82.9777L88.7577 20H84.1377L83.1377 17.38H78.5777L77.5577 20H73.1177ZM79.8177 14.16H81.8777L80.8577 10.84L79.8177 14.16ZM87.2095 6H99.5095V9.7H95.4895V20H91.1895V9.7H87.2095V6ZM103.713 20.28C102.54 20.28 101.626 20.0867 100.973 19.7V16.1C101.52 16.3933 102.173 16.54 102.933 16.54C103.8 16.54 104.426 16.1867 104.813 15.48L99.8131 6H104.513L106.933 11.36L109.113 6H113.613L108.613 16.88C108.28 17.6 107.88 18.2067 107.413 18.7C106.96 19.1933 106.486 19.5467 105.993 19.76C105.513 19.96 105.1 20.0933 104.753 20.16C104.406 20.24 104.06 20.28 103.713 20.28ZM114.529 6H120.969C122.582 6 123.869 6.42667 124.829 7.28C125.789 8.13333 126.269 9.22667 126.269 10.56C126.269 11.88 125.782 12.9733 124.809 13.84C123.849 14.6933 122.569 15.12 120.969 15.12H118.829V20H114.529V6ZM118.829 12H120.389C120.829 12 121.182 11.8867 121.449 11.66C121.729 11.4333 121.869 11.1267 121.869 10.74C121.869 10.3667 121.729 10.0667 121.449 9.84C121.169 9.61333 120.815 9.5 120.389 9.5H118.829V12ZM125.071 20L130.831 5.92H134.931L140.711 20H136.091L135.091 17.38H130.531L129.511 20H125.071ZM131.771 14.16H133.831L132.811 10.84L131.771 14.16Z" fill="#FF6060"/>
</g>
<defs>
<filter id="filter0_d_1_73" x="0.285156" y="0.919998" width="145.426" height="24.36" filterUnits="userSpaceOnUse" color-interpolation-filters="sRGB">
<feFlood flood-opacity="0" result="BackgroundImageFix"/>
<feColorMatrix in="SourceAlpha" type="matrix" values="0 0 0 0 0 0 0 0 0 0 0 0 0 0 0 0 0 0 127 0" result="hardAlpha"/>
<feOffset/>
<feGaussianBlur stdDeviation="2.5"/>
<feComposite in2="hardAlpha" operator="out"/>
<feColorMatrix type="matrix" values="0 0 0 0 0 0 0 0 0 0 0 0 0 0 0 0 0 0 0.34 0"/>
<feBlend mode="normal" in2="BackgroundImageFix" result="effect1_dropShadow_1_73"/>
<feBlend mode="normal" in="SourceGraphic" in2="effect1_dropShadow_1_73" result="shape"/>
</filter>
</defs>
</svg>
