<svg width="108" height="52" viewBox="0 0 108 52" fill="none" xmlns="http://www.w3.org/2000/svg">
<g filter="url(#filter0_d_1_74)">
<path d="M7.06 10H13.5C15.1133 10 16.4 10.4267 17.36 11.28C18.32 12.1333 18.8 13.2267 18.8 14.56C18.8 15.88 18.3133 16.9733 17.34 17.84C16.38 18.6933 15.1 19.12 13.5 19.12H11.36V24H7.06V10ZM11.36 16H12.92C13.36 16 13.7133 15.8867 13.98 15.66C14.26 15.4333 14.4 15.1267 14.4 14.74C14.4 14.3667 14.26 14.0667 13.98 13.84C13.7 13.6133 13.3467 13.5 12.92 13.5H11.36V16ZM22.7873 24.28C21.614 24.28 20.7007 24.0867 20.0473 23.7V20.1C20.594 20.3933 21.2473 20.54 22.0073 20.54C22.874 20.54 23.5007 20.1867 23.8873 19.48L18.8873 10H23.5873L26.0073 15.36L28.1873 10H32.6873L27.6873 20.88C27.354 21.6 26.954 22.2067 26.4873 22.7C26.034 23.1933 25.5607 23.5467 25.0673 23.76C24.5873 23.96 24.174 24.0933 23.8273 24.16C23.4807 24.24 23.134 24.28 22.7873 24.28ZM40.5784 24.28C38.2718 24.28 36.3584 23.6067 34.8384 22.26C33.3184 20.9 32.5584 19.1467 32.5584 17C32.5584 14.8533 33.3118 13.1067 34.8184 11.76C36.3251 10.4 38.2318 9.72 40.5384 9.72C41.9118 9.72 43.0918 9.96667 44.0784 10.46V14.52C42.9318 13.9067 41.7918 13.6 40.6584 13.6C39.5918 13.6 38.7118 13.9267 38.0184 14.58C37.3251 15.22 36.9784 16.0267 36.9784 17C36.9784 18 37.3384 18.82 38.0584 19.46C38.7784 20.0867 39.6984 20.4 40.8184 20.4C42.1918 20.4 43.3451 20.0667 44.2784 19.4V23.52C43.3184 24.0267 42.0851 24.28 40.5784 24.28ZM53.43 24.28C51.1233 24.28 49.21 23.6067 47.69 22.26C46.17 20.9 45.41 19.1467 45.41 17C45.41 14.8533 46.1633 13.1067 47.67 11.76C49.1767 10.4 51.0833 9.72 53.39 9.72C54.7633 9.72 55.9433 9.96667 56.93 10.46V14.52C55.7833 13.9067 54.6433 13.6 53.51 13.6C52.4433 13.6 51.5633 13.9267 50.87 14.58C50.1767 15.22 49.83 16.0267 49.83 17C49.83 18 50.19 18.82 50.91 19.46C51.63 20.0867 52.55 20.4 53.67 20.4C55.0433 20.4 56.1967 20.0667 57.13 19.4V23.52C56.17 24.0267 54.9367 24.28 53.43 24.28ZM58.9936 24V10H63.2936V15.22L67.2336 10H72.2936L67.3336 16.5L73.2936 24H68.0136L63.2936 17.96V24H58.9936ZM74.0717 24V10H78.2317V16.96L83.6317 10H87.1717V24H83.0517V17.1L77.7317 24H74.0717ZM89.2866 24V10H93.4466V16.96L98.8466 10H102.387V24H98.2666V17.1L92.9466 24H89.2866ZM95.8666 9.32C94.7866 9.32 93.8732 9 93.1266 8.36C92.3799 7.70667 91.9932 6.82 91.9666 5.7H94.6866C94.6999 6.42 95.0866 6.78 95.8466 6.78C96.5799 6.78 96.9599 6.42 96.9866 5.7H99.7466C99.7199 6.83333 99.3399 7.72 98.6066 8.36C97.8866 9 96.9732 9.32 95.8666 9.32ZM5.8 46L9.98 40.52C9.18 40.12 8.55333 39.5733 8.1 38.88C7.64667 38.1733 7.42 37.38 7.42 36.5C7.42 35.1933 7.9 34.12 8.86 33.28C9.82 32.4267 11.0933 32 12.68 32H19.4V46H15.1V41H14.54L10.78 46H5.8ZM13.18 37.86H15.1V35.6H13.18C12.78 35.6 12.4533 35.7 12.2 35.9C11.96 36.1 11.84 36.3733 11.84 36.72C11.84 37.0667 11.96 37.3467 12.2 37.56C12.4533 37.76 12.78 37.86 13.18 37.86ZM26.3131 46.28C24.1398 46.28 22.3398 45.84 20.9131 44.96V40.94C21.5531 41.4333 22.3065 41.8133 23.1731 42.08C24.0531 42.3333 24.9065 42.46 25.7331 42.46C27.3331 42.46 28.1331 42.0667 28.1331 41.28C28.1331 40.9467 27.9798 40.72 27.6731 40.6C27.3798 40.4667 26.9465 40.4 26.3731 40.4H24.2931V37.14H26.5931C27.4998 37.14 27.9531 36.88 27.9531 36.36C27.9531 35.76 27.2798 35.46 25.9331 35.46C24.2798 35.46 22.7598 35.8067 21.3731 36.5V32.84C22.8131 32.0933 24.4798 31.72 26.3731 31.72C28.1865 31.72 29.6131 32.1133 30.6531 32.9C31.7065 33.6733 32.2331 34.6467 32.2331 35.82C32.2331 36.5267 32.0731 37.12 31.7531 37.6C31.4331 38.0667 31.0331 38.4067 30.5531 38.62C31.1131 38.8867 31.5865 39.2933 31.9731 39.84C32.3731 40.3733 32.5731 41.0133 32.5731 41.76C32.5731 43.04 32.0065 44.1133 30.8731 44.98C29.7531 45.8467 28.2331 46.28 26.3131 46.28ZM46.9317 46V32H51.2117V46H46.9317ZM34.0717 46V32H38.3717V36.04H39.9117C41.6584 36.04 43.0584 36.5133 44.1117 37.46C45.1784 38.3933 45.7117 39.5867 45.7117 41.04C45.7117 42.4933 45.1851 43.6867 44.1317 44.62C43.0784 45.54 41.6717 46 39.9117 46H34.0717ZM38.3717 42.42H39.6317C40.1517 42.42 40.5717 42.2867 40.8917 42.02C41.2251 41.74 41.3917 41.38 41.3917 40.94C41.3917 40.4733 41.2251 40.1 40.8917 39.82C40.5717 39.54 40.1517 39.4 39.6317 39.4H38.3717V42.42ZM53.3295 46V32H57.6295V37.22L61.5695 32H66.6295L61.6695 38.5L67.6295 46H62.3495L57.6295 39.96V46H53.3295Z" fill="#FF6060"/>
</g>
<defs>
<filter id="filter0_d_1_74" x="0.799988" y="0.699997" width="106.587" height="50.58" filterUnits="userSpaceOnUse" color-interpolation-filters="sRGB">
<feFlood flood-opacity="0" result="BackgroundImageFix"/>
<feColorMatrix in="SourceAlpha" type="matrix" values="0 0 0 0 0 0 0 0 0 0 0 0 0 0 0 0 0 0 127 0" result="hardAlpha"/>
<feOffset/>
<feGaussianBlur stdDeviation="2.5"/>
<feComposite in2="hardAlpha" operator="out"/>
<feColorMatrix type="matrix" values="0 0 0 0 0 0 0 0 0 0 0 0 0 0 0 0 0 0 0.34 0"/>
<feBlend mode="normal" in2="BackgroundImageFix" result="effect1_dropShadow_1_74"/>
<feBlend mode="normal" in="SourceGraphic" in2="effect1_dropShadow_1_74" result="shape"/>
</filter>
</defs>
</svg>
